# xmcd
# 
# Track frame offsets:
#     150
#     15587
#     31265
#     50706
#     70664
#     97977
#     116945
#     133941
#     155718
#     174495
#     196804
#     217989
# 
# Disc length: 3199
# 
# Revision: 3
# Processed by: cddbd v1.5.2PL0 Copyright (c) Steve Scherf et al.
# Submitted via: BonkEnc v1.0.5
# 
DISCID=a60c7d0c
DTITLE=Bleu Edmonson - Southland
DYEAR=2001
DGENRE=Country
TTITLE0=$50 Dollars And A Flask Of Crown
TTITLE1=Travelin' Man
TTITLE2=It's About You
TTITLE3=What I Left Behind
TTITLE4=Comin' Down
TTITLE5=Further Down The Line
TTITLE6=Hell On 18 Wheels
TTITLE7=You Don't Know Me
TTITLE8=It's Alright
TTITLE9=Live Oak Lullaby
TTITLE10=Laughin' Right Out Loud
TTITLE11=Bonus Track
EXTD=
EXTT0=
EXTT1=
EXTT2=
EXTT3=
EXTT4=
EXTT5=
EXTT6=
EXTT7=
EXTT8=
EXTT9=
EXTT10=
EXTT11=
PLAYORDER=
